<svg width="331.000000" height="57.000000" viewBox="0 0 331 57" fill="none" xmlns="http://www.w3.org/2000/svg" xmlns:xlink="http://www.w3.org/1999/xlink">
	<desc>
			Created with Pixso.
	</desc>
	<defs>
		<clipPath id="clip8_114">
			<rect width="57.048306" height="57.000000" fill="white" fill-opacity="0"/>
		</clipPath>
	</defs>
	<rect width="57.048306" height="57.000000" fill="#FFFFFF" fill-opacity="0"/>
	<g clip-path="url(#clip8_114)">
		<path d="M38.14 26.64C35.58 22.64 31.21 20.25 26.45 20.25C21.69 20.25 17.32 22.64 14.75 26.64L8.57 36.28C7.54 37.88 7.07 39.73 7.2 41.63C7.33 43.52 8.05 45.29 9.29 46.73C10.52 48.18 12.16 49.17 14.01 49.59C15.87 50.01 17.77 49.83 19.51 49.07L19.63 49.01C24.01 47.13 29.02 47.15 33.39 49.07C34.52 49.56 35.71 49.81 36.92 49.81C37.57 49.81 38.23 49.74 38.88 49.59C40.74 49.17 42.37 48.18 43.61 46.73C44.85 45.29 45.57 43.52 45.7 41.63C45.83 39.73 45.36 37.88 44.33 36.28L38.14 26.64ZM10.23 26.63C12.07 25.92 13.47 24.44 14.17 22.46C14.84 20.57 14.78 18.44 14.02 16.45C13.25 14.47 11.86 12.85 10.1 11.9C8.25 10.89 6.22 10.73 4.38 11.44C0.69 12.86 -1.01 17.42 0.6 21.61C1.89 24.95 4.89 27.06 7.93 27.06C8.72 27.06 9.5 26.91 10.23 26.63ZM22.24 19.08C26.86 19.08 30.62 14.8 30.62 9.54C30.62 4.28 26.86 0 22.24 0C17.62 0 13.86 4.28 13.86 9.54C13.86 14.8 17.62 19.08 22.24 19.08ZM36.71 21.42L36.71 21.42C37.4 21.65 38.13 21.77 38.87 21.77C42.24 21.77 45.52 19.32 46.77 15.55C47.5 13.38 47.45 11.09 46.64 9.1C45.79 7.01 44.23 5.49 42.23 4.83C40.23 4.17 38.07 4.44 36.14 5.61C34.3 6.72 32.89 8.53 32.16 10.7C30.64 15.27 32.68 20.08 36.71 21.42ZM54.36 20.31L54.35 20.3C51.17 17.95 46.4 18.97 43.73 22.58C41.06 26.19 41.48 31.04 44.66 33.39C45.82 34.25 47.19 34.66 48.59 34.66C51.04 34.66 53.58 33.41 55.29 31.12C57.95 27.51 57.54 22.66 54.36 20.31L54.36 20.31Z" fill="#FDEEE3" fill-opacity="1.000000" fill-rule="nonzero"/>
	</g>
	<path d="M305.53 26.47C305.19 26.47 305.02 26.29 305.02 25.93L305.02 23.98C305.02 23.64 305.19 23.47 305.53 23.47L308.07 23.47L308.07 17.92C308.07 17.68 308.11 17.44 308.17 17.19C308.25 16.95 308.46 16.76 308.78 16.63L322.27 11.65C322.89 11.42 323.4 11.25 323.81 11.14C324.22 11.02 324.58 10.97 324.89 10.97C325 10.97 325.12 10.99 325.25 11.04C325.4 11.07 325.53 11.14 325.64 11.23C325.77 11.33 325.88 11.47 325.96 11.65C326.04 11.81 326.08 12.02 326.08 12.26L326.08 23.47L330.48 23.47C330.82 23.47 331 23.64 331 23.98L331 25.93C331 26.29 330.82 26.47 330.48 26.47L326.08 26.47L326.08 36.31C326.08 37.46 326.27 38.28 326.65 38.75C327.04 39.22 327.63 39.46 328.43 39.46C328.61 39.46 328.8 39.44 328.99 39.41C329.19 39.36 329.37 39.32 329.53 39.29C329.71 39.24 329.87 39.2 330.02 39.16C330.16 39.12 330.29 39.09 330.38 39.09C330.56 39.09 330.65 39.2 330.65 39.41L330.65 41.29C330.65 41.61 330.59 41.83 330.46 41.95C330.33 42.06 330.21 42.13 330.12 42.17C329.5 42.43 328.76 42.69 327.92 42.95C327.09 43.21 326.18 43.44 325.2 43.63C324.24 43.84 323.23 44.01 322.15 44.12C321.07 44.25 320 44.32 318.92 44.32C317.38 44.32 315.94 44.23 314.6 44.07C313.28 43.92 312.13 43.57 311.15 43.02C310.19 42.47 309.44 41.65 308.88 40.56C308.34 39.47 308.07 37.98 308.07 36.11L308.07 26.47L305.53 26.47Z" fill="#FDEEE3" fill-opacity="1.000000" fill-rule="nonzero"/>
	<path d="M297.35 39.41C297.79 39.41 298.19 39.35 298.55 39.24C298.9 39.11 299.22 38.97 299.5 38.82C299.79 38.68 300.03 38.55 300.21 38.43C300.4 38.3 300.55 38.24 300.65 38.24C300.79 38.24 300.89 38.26 300.94 38.31C301.01 38.36 301.08 38.45 301.16 38.58L302.02 39.9C302.1 40.03 302.14 40.14 302.14 40.24C302.14 40.35 302.1 40.44 302.04 40.51C301.98 40.57 301.91 40.63 301.85 40.68C301.31 41.05 300.65 41.46 299.87 41.9C299.08 42.32 298.17 42.71 297.13 43.07C296.1 43.43 294.94 43.72 293.64 43.95C292.33 44.19 290.9 44.32 289.33 44.32C288.11 44.32 286.89 44.22 285.67 44.02C284.45 43.83 283.27 43.52 282.15 43.09C281.04 42.67 280.01 42.12 279.05 41.43C278.09 40.75 277.25 39.91 276.53 38.92C275.83 37.93 275.28 36.78 274.87 35.48C274.46 34.16 274.26 32.65 274.26 30.96C274.26 29.3 274.46 27.82 274.87 26.52C275.28 25.2 275.83 24.04 276.53 23.05C277.25 22.06 278.09 21.22 279.05 20.54C280.01 19.84 281.04 19.27 282.15 18.85C283.27 18.41 284.45 18.09 285.67 17.9C286.89 17.7 288.11 17.61 289.33 17.61C291.37 17.61 293.26 17.83 295 18.29C296.76 18.75 298.29 19.49 299.57 20.54C300.86 21.58 301.87 22.94 302.6 24.64C303.34 26.33 303.7 28.41 303.7 30.86L303.7 32.23C303.7 32.52 303.63 32.75 303.48 32.91C303.34 33.08 303.09 33.16 302.75 33.16L292.63 33.16C292.76 34.36 292.99 35.37 293.32 36.19C293.66 36.98 294.04 37.63 294.47 38.11C294.91 38.59 295.38 38.92 295.88 39.12C296.39 39.31 296.88 39.41 297.35 39.41ZM300.23 30.16C300.23 28.85 300.13 27.78 299.91 26.93C299.72 26.07 299.45 25.39 299.11 24.88C298.77 24.36 298.36 23.99 297.89 23.78C297.43 23.57 296.95 23.47 296.44 23.47C296.07 23.47 295.66 23.54 295.22 23.69C294.78 23.83 294.37 24.14 293.98 24.61C293.6 25.09 293.28 25.76 293 26.64C292.74 27.52 292.58 28.69 292.54 30.16L300.23 30.16Z" fill="#FDEEE3" fill-opacity="1.000000" fill-rule="nonzero"/>
	<path d="M244.77 21.85C244.77 21.3 244.81 20.81 244.91 20.39C245.01 19.95 245.2 19.59 245.47 19.32C245.75 19.04 246.13 18.83 246.62 18.68C247.11 18.53 247.75 18.46 248.53 18.46L258.52 18.46C259.25 18.46 259.88 18.53 260.4 18.68C260.94 18.83 261.32 19.08 261.55 19.44C261.76 19.29 262.02 19.14 262.31 18.97C262.62 18.79 262.95 18.63 263.31 18.49C263.67 18.34 264.05 18.22 264.46 18.12C264.87 18.02 265.29 17.97 265.73 17.97C267.29 17.97 268.51 18.51 269.37 19.58C270.25 20.66 270.69 22.24 270.69 24.32L270.69 42.31C270.69 42.59 270.65 42.81 270.57 42.97C270.5 43.12 270.41 43.23 270.3 43.31C270.2 43.38 270.08 43.42 269.93 43.44C269.79 43.45 269.64 43.46 269.49 43.46L267.93 43.46C267.51 43.46 267.23 43.34 267.1 43.09C266.98 42.85 266.93 42.59 266.93 42.31L266.93 24.08C266.93 23.15 266.76 22.44 266.41 21.95C266.09 21.46 265.56 21.22 264.83 21.22C264.45 21.22 264.07 21.33 263.68 21.54C263.3 21.73 263 21.94 262.77 22.17L262.77 40.04C262.77 40.61 262.72 41.11 262.63 41.53C262.53 41.96 262.34 42.31 262.06 42.61C261.79 42.88 261.41 43.09 260.92 43.24C260.43 43.39 259.79 43.46 259.01 43.46L248.53 43.46C247.75 43.46 247.11 43.39 246.62 43.24C246.13 43.09 245.75 42.88 245.47 42.61C245.2 42.33 245.01 41.98 244.91 41.56C244.81 41.13 244.77 40.64 244.77 40.07L244.77 21.85Z" fill="#FDEEE3" fill-opacity="1.000000" fill-rule="nonzero"/>
	<path d="M223.46 43.46C222.58 43.46 221.69 43.4 220.79 43.29C219.92 43.18 219.07 43 218.25 42.75C217.46 42.49 216.71 42.16 216.01 41.75C215.31 41.34 214.69 40.84 214.17 40.24C213.67 39.64 213.27 38.93 212.98 38.11C212.68 37.3 212.54 36.36 212.54 35.31C212.54 33.89 212.8 32.68 213.34 31.67C213.88 30.66 214.6 29.82 215.49 29.15C216.4 28.49 217.45 27.97 218.62 27.62C219.79 27.26 221.01 27.03 222.26 26.93L222.26 25.25C222.26 24.61 222.18 24.11 222.02 23.73C221.85 23.36 221.64 23.08 221.38 22.9C221.14 22.71 220.86 22.59 220.55 22.54C220.26 22.47 219.97 22.44 219.7 22.44C219.37 22.44 219.02 22.49 218.64 22.59C218.29 22.68 217.94 22.81 217.59 22.95C217.25 23.08 216.93 23.23 216.62 23.39C216.31 23.56 216.05 23.7 215.83 23.83C215.74 23.9 215.65 23.95 215.57 24C215.48 24.05 215.4 24.08 215.32 24.08C215.18 24.08 215.04 23.97 214.91 23.76L214.08 22.44C213.99 22.33 213.95 22.2 213.95 22.07C213.95 21.94 214 21.83 214.1 21.73C214.21 21.63 214.32 21.55 214.42 21.49C214.95 21.11 215.64 20.73 216.47 20.34C217.3 19.95 218.23 19.6 219.26 19.29C220.3 18.98 221.42 18.73 222.63 18.53C223.83 18.34 225.08 18.24 226.37 18.24C227.59 18.24 228.78 18.28 229.93 18.36C231.11 18.44 232.21 18.62 233.23 18.9C234.27 19.16 235.22 19.54 236.07 20.05C236.93 20.54 237.67 21.19 238.29 22C238.93 22.81 239.41 23.82 239.76 25C240.1 26.19 240.27 27.62 240.27 29.28L240.27 40.16C240.27 40.7 240.22 41.18 240.12 41.61C240.03 42.01 239.84 42.35 239.56 42.63C239.28 42.91 238.9 43.12 238.41 43.27C237.92 43.4 237.29 43.46 236.51 43.46L223.46 43.46ZM222.26 30.03C221.09 30.03 220.1 30.18 219.3 30.47C218.51 30.77 217.86 31.16 217.37 31.64C216.89 32.13 216.54 32.7 216.32 33.35C216.11 33.99 216.01 34.65 216.01 35.33C216.01 36.01 216.11 36.67 216.32 37.28C216.54 37.89 216.89 38.42 217.37 38.87C217.86 39.33 218.51 39.68 219.3 39.95C220.1 40.21 221.09 40.34 222.26 40.34L222.26 30.03Z" fill="#FDEEE3" fill-opacity="1.000000" fill-rule="nonzero"/>
	<path d="M190.72 6.86C190.72 6.31 190.76 5.82 190.86 5.4C190.96 4.96 191.15 4.6 191.42 4.33C191.7 4.05 192.08 3.84 192.57 3.69C193.06 3.54 193.7 3.47 194.48 3.47L205.18 3.47C205.93 3.47 206.53 3.54 206.99 3.69C207.45 3.82 207.8 4.02 208.06 4.3C208.33 4.58 208.5 4.93 208.58 5.35C208.68 5.77 208.72 6.27 208.72 6.84L208.72 40.12C208.72 40.67 208.68 41.16 208.58 41.58C208.48 41.99 208.3 42.34 208.04 42.63C207.78 42.91 207.41 43.12 206.94 43.27C206.48 43.4 205.88 43.46 205.13 43.46L194.48 43.46C193.7 43.46 193.06 43.39 192.57 43.24C192.08 43.09 191.7 42.88 191.42 42.61C191.15 42.33 190.96 41.98 190.86 41.56C190.76 41.13 190.72 40.64 190.72 40.07L190.72 6.86Z" fill="#FDEEE3" fill-opacity="1.000000" fill-rule="nonzero"/>
	<path d="M172.49 17.9C173.69 17.9 174.89 17.99 176.08 18.17C177.27 18.35 178.41 18.64 179.5 19.05C180.59 19.45 181.6 19.98 182.53 20.63C183.46 21.28 184.27 22.09 184.95 23.05C185.63 24.01 186.17 25.13 186.56 26.42C186.95 27.69 187.15 29.15 187.15 30.81C187.15 32.87 186.85 34.64 186.27 36.14C185.68 37.62 184.9 38.86 183.92 39.87C182.95 40.88 181.81 41.68 180.53 42.26C179.24 42.83 177.89 43.23 176.47 43.46L176.47 50.1C176.47 50.69 176.42 51.19 176.32 51.62C176.23 52.04 176.05 52.39 175.79 52.66C175.54 52.96 175.18 53.17 174.71 53.3C174.25 53.45 173.66 53.52 172.93 53.52L162.22 53.52C161.44 53.52 160.81 53.45 160.32 53.3C159.83 53.15 159.45 52.93 159.17 52.64C158.89 52.36 158.71 52.01 158.61 51.59C158.51 51.17 158.46 50.67 158.46 50.1L158.46 30.57C158.46 28.55 158.77 26.75 159.39 25.17C160.03 23.6 160.94 22.27 162.13 21.2C163.33 20.12 164.8 19.31 166.53 18.75C168.27 18.18 170.26 17.9 172.49 17.9ZM183.68 30.79C183.68 29.54 183.54 28.37 183.26 27.3C182.99 26.22 182.55 25.27 181.97 24.44C181.38 23.61 180.63 22.94 179.72 22.42C178.82 21.88 177.74 21.54 176.47 21.39L176.47 40.34C177.74 40.17 178.82 39.82 179.72 39.29C180.63 38.75 181.38 38.06 181.97 37.21C182.55 36.36 182.99 35.4 183.26 34.31C183.54 33.22 183.68 32.04 183.68 30.79Z" fill="#FDEEE3" fill-opacity="1.000000" fill-rule="nonzero"/>
	<path d="M129.26 26.47C128.92 26.47 128.75 26.29 128.75 25.93L128.75 23.98C128.75 23.64 128.92 23.47 129.26 23.47L131.8 23.47L131.8 17.92C131.8 17.68 131.84 17.44 131.9 17.19C131.98 16.95 132.19 16.76 132.51 16.63L146 11.65C146.62 11.42 147.13 11.25 147.54 11.14C147.95 11.02 148.31 10.97 148.61 10.97C148.73 10.97 148.85 10.99 148.98 11.04C149.13 11.07 149.26 11.14 149.37 11.23C149.5 11.33 149.61 11.47 149.69 11.65C149.77 11.81 149.81 12.02 149.81 12.26L149.81 23.47L154.21 23.47C154.55 23.47 154.72 23.64 154.72 23.98L154.72 25.93C154.72 26.29 154.55 26.47 154.21 26.47L149.81 26.47L149.81 36.31C149.81 37.46 150 38.28 150.37 38.75C150.76 39.22 151.36 39.46 152.16 39.46C152.34 39.46 152.52 39.44 152.72 39.41C152.91 39.36 153.09 39.32 153.26 39.29C153.44 39.24 153.6 39.2 153.75 39.16C153.89 39.12 154.01 39.09 154.11 39.09C154.29 39.09 154.38 39.2 154.38 39.41L154.38 41.29C154.38 41.61 154.32 41.83 154.19 41.95C154.06 42.06 153.94 42.13 153.84 42.17C153.22 42.43 152.49 42.69 151.64 42.95C150.81 43.21 149.91 43.44 148.93 43.63C147.97 43.84 146.95 44.01 145.88 44.12C144.8 44.25 143.73 44.32 142.65 44.32C141.1 44.32 139.66 44.23 138.33 44.07C137.01 43.92 135.86 43.57 134.88 43.02C133.92 42.47 133.16 41.65 132.61 40.56C132.07 39.47 131.8 37.98 131.8 36.11L131.8 26.47L129.26 26.47Z" fill="#FDEEE3" fill-opacity="1.000000" fill-rule="nonzero"/>
	<path d="M121.08 39.41C121.52 39.41 121.92 39.35 122.27 39.24C122.63 39.11 122.95 38.97 123.23 38.82C123.52 38.68 123.76 38.55 123.94 38.43C124.13 38.3 124.28 38.24 124.38 38.24C124.52 38.24 124.62 38.26 124.67 38.31C124.73 38.36 124.81 38.45 124.89 38.58L125.74 39.9C125.83 40.03 125.87 40.14 125.87 40.24C125.87 40.35 125.83 40.44 125.77 40.51C125.7 40.57 125.64 40.63 125.57 40.68C125.04 41.05 124.38 41.46 123.59 41.9C122.81 42.32 121.9 42.71 120.86 43.07C119.83 43.43 118.67 43.72 117.36 43.95C116.06 44.19 114.63 44.32 113.06 44.32C111.84 44.32 110.62 44.22 109.4 44.02C108.18 43.83 107 43.52 105.88 43.09C104.77 42.67 103.74 42.12 102.77 41.43C101.81 40.75 100.97 39.91 100.26 38.92C99.56 37.93 99 36.78 98.6 35.48C98.19 34.16 97.99 32.65 97.99 30.96C97.99 29.3 98.19 27.82 98.6 26.52C99 25.2 99.56 24.04 100.26 23.05C100.97 22.06 101.81 21.22 102.77 20.54C103.74 19.84 104.77 19.27 105.88 18.85C107 18.41 108.18 18.09 109.4 17.9C110.62 17.7 111.84 17.61 113.06 17.61C115.1 17.61 116.99 17.83 118.73 18.29C120.49 18.75 122.01 19.49 123.3 20.54C124.59 21.58 125.6 22.94 126.33 24.64C127.06 26.33 127.43 28.41 127.43 30.86L127.43 32.23C127.43 32.52 127.36 32.75 127.21 32.91C127.06 33.08 126.82 33.16 126.48 33.16L116.36 33.16C116.49 34.36 116.72 35.37 117.04 36.19C117.39 36.98 117.77 37.63 118.19 38.11C118.63 38.59 119.11 38.92 119.61 39.12C120.12 39.31 120.6 39.41 121.08 39.41ZM123.96 30.16C123.96 28.85 123.85 27.78 123.64 26.93C123.45 26.07 123.18 25.39 122.84 24.88C122.49 24.36 122.09 23.99 121.61 23.78C121.16 23.57 120.68 23.47 120.17 23.47C119.8 23.47 119.39 23.54 118.95 23.69C118.51 23.83 118.1 24.14 117.7 24.61C117.33 25.09 117 25.76 116.73 26.64C116.47 27.52 116.31 28.69 116.26 30.16L123.96 30.16Z" fill="#FDEEE3" fill-opacity="1.000000" fill-rule="nonzero"/>
	<path d="M68.05 11.82C68.05 11.25 68.1 10.75 68.2 10.33C68.3 9.91 68.48 9.56 68.76 9.28C69.04 8.99 69.42 8.77 69.91 8.62C70.4 8.48 71.03 8.4 71.82 8.4L82.71 8.4C83.84 8.4 84.95 8.48 86.06 8.62C87.17 8.75 88.23 8.98 89.24 9.31C90.26 9.63 91.21 10.05 92.07 10.58C92.95 11.1 93.71 11.75 94.34 12.53C95 13.29 95.5 14.2 95.86 15.24C96.23 16.26 96.42 17.45 96.42 18.8C96.42 20.8 96.14 22.5 95.59 23.88C95.05 25.25 94.32 26.38 93.39 27.27C92.46 28.17 91.38 28.85 90.14 29.33C88.92 29.8 87.63 30.14 86.28 30.35L86.28 39.51C86.28 39.88 86.25 40.3 86.18 40.75C86.12 41.21 85.96 41.64 85.69 42.04C85.43 42.44 85.03 42.77 84.5 43.05C83.96 43.32 83.22 43.46 82.27 43.46L71.82 43.46C71.03 43.46 70.4 43.39 69.91 43.24C69.42 43.09 69.04 42.88 68.76 42.61C68.48 42.33 68.3 41.98 68.2 41.56C68.1 41.13 68.05 40.64 68.05 40.07L68.05 11.82ZM92.98 19.17C92.98 18.19 92.85 17.3 92.59 16.48C92.32 15.65 91.93 14.93 91.39 14.31C90.85 13.69 90.16 13.18 89.31 12.77C88.46 12.37 87.45 12.09 86.28 11.94L86.28 27.1C87.45 26.92 88.46 26.6 89.31 26.13C90.16 25.65 90.85 25.07 91.39 24.37C91.93 23.67 92.32 22.88 92.59 22C92.85 21.11 92.98 20.16 92.98 19.17Z" fill="#FDEEE3" fill-opacity="1.000000" fill-rule="nonzero"/>
</svg>
