<svg width="320.000000" height="840.000000" viewBox="0 0 320 840" fill="none" xmlns="http://www.w3.org/2000/svg" xmlns:xlink="http://www.w3.org/1999/xlink">
	<desc>
			Created with Pixso.
	</desc>
	<defs>
		<clipPath id="clip33_690">
			<rect id="Frame 4" rx="-0.500000" width="319.000000" height="839.000000" transform="translate(0.500000 0.500000)" fill="white" fill-opacity="0"/>
		</clipPath>
	</defs>
	<mask id="mask33_688" mask-type="alpha" maskUnits="userSpaceOnUse" x="0.000000" y="0.000000" width="320.000000" height="840.000000">
		<path id="Rectangle 30" d="M80 0L240 0C284.18 0 320 35.81 320 80L320 840L0 840L0 80C0 35.81 35.81 0 80 0Z" fill="#E47537" fill-opacity="1.000000" fill-rule="evenodd"/>
	</mask>
	<g mask="url(#mask33_688)">
		<g opacity="0.300000">
			<g clip-path="url(#clip33_690)">
				<rect id="Rectangle 1" x="1.128906" width="426.841980" height="0.296007" fill="#FDEEE3" fill-opacity="1.000000"/>
				<rect id="Rectangle 2" x="1.128906" y="15.133789" width="426.841980" height="0.296007" fill="#FDEEE3" fill-opacity="1.000000"/>
				<rect id="Rectangle 3" x="1.128906" y="30.267578" width="426.841980" height="0.296007" fill="#FDEEE3" fill-opacity="1.000000"/>
				<rect id="Rectangle 4" x="1.128906" y="45.401367" width="426.841980" height="0.296007" fill="#FDEEE3" fill-opacity="1.000000"/>
				<rect id="Rectangle 5" x="1.128906" y="60.535034" width="426.841980" height="0.296007" fill="#FDEEE3" fill-opacity="1.000000"/>
				<rect id="Rectangle 6" x="1.128906" y="75.668823" width="426.841980" height="0.296007" fill="#FDEEE3" fill-opacity="1.000000"/>
				<rect id="Rectangle 16" x="1.128906" y="90.802612" width="426.841980" height="0.296007" fill="#FDEEE3" fill-opacity="1.000000"/>
				<rect id="Rectangle 17" x="1.128906" y="105.936279" width="426.841980" height="0.296007" fill="#FDEEE3" fill-opacity="1.000000"/>
				<rect id="Rectangle 18" x="1.128906" y="121.070068" width="426.841980" height="0.296007" fill="#FDEEE3" fill-opacity="1.000000"/>
				<rect id="Rectangle 19" x="1.128906" y="136.203857" width="426.841980" height="0.296007" fill="#FDEEE3" fill-opacity="1.000000"/>
				<rect id="Rectangle 20" x="1.128906" y="151.337646" width="426.841980" height="0.296007" fill="#FDEEE3" fill-opacity="1.000000"/>
				<rect id="Rectangle 21" x="1.128906" y="166.471313" width="426.841980" height="0.296007" fill="#FDEEE3" fill-opacity="1.000000"/>
				<rect id="Rectangle 22" x="1.128906" y="181.605225" width="426.841980" height="0.296007" fill="#FDEEE3" fill-opacity="1.000000"/>
				<rect id="Rectangle 23" x="1.128906" y="196.738892" width="426.841980" height="0.296007" fill="#FDEEE3" fill-opacity="1.000000"/>
				<rect id="Rectangle 24" x="1.128906" y="211.872803" width="426.841980" height="0.296007" fill="#FDEEE3" fill-opacity="1.000000"/>
				<rect id="Rectangle 25" x="1.128906" y="227.006470" width="426.841980" height="0.296007" fill="#FDEEE3" fill-opacity="1.000000"/>
				<rect id="Rectangle 7" x="1.128906" y="242.140137" width="426.841980" height="0.296007" fill="#FDEEE3" fill-opacity="1.000000"/>
				<rect id="Rectangle 8" x="1.128906" y="257.273926" width="426.841980" height="0.296007" fill="#FDEEE3" fill-opacity="1.000000"/>
				<rect id="Rectangle 9" x="1.128906" y="272.407715" width="426.841980" height="0.296007" fill="#FDEEE3" fill-opacity="1.000000"/>
				<rect id="Rectangle 10" x="1.128906" y="287.541504" width="426.841980" height="0.296007" fill="#FDEEE3" fill-opacity="1.000000"/>
				<rect id="Rectangle 12" x="1.128906" y="302.675293" width="426.841980" height="0.296007" fill="#FDEEE3" fill-opacity="1.000000"/>
				<rect id="Rectangle 14" x="1.128906" y="317.809082" width="426.841980" height="0.296007" fill="#FDEEE3" fill-opacity="1.000000"/>
				<rect id="Rectangle 26" x="1.128906" y="332.942871" width="426.841980" height="0.296007" fill="#FDEEE3" fill-opacity="1.000000"/>
				<rect id="Rectangle 27" x="1.128906" y="348.076538" width="426.841980" height="0.296007" fill="#FDEEE3" fill-opacity="1.000000"/>
				<rect id="Rectangle 28" x="1.128906" y="363.210327" width="426.841980" height="0.296007" fill="#FDEEE3" fill-opacity="1.000000"/>
				<rect id="Rectangle 30" x="1.128906" y="439.166626" width="426.841980" height="0.296007" fill="#FDEEE3" fill-opacity="1.000000"/>
				<rect id="Rectangle 35" x="1.128906" y="560.688721" width="426.841980" height="0.296007" fill="#FDEEE3" fill-opacity="1.000000"/>
				<rect id="Rectangle 43" x="1.128906" y="681.688721" width="426.841980" height="0.296007" fill="#FDEEE3" fill-opacity="1.000000"/>
				<rect id="Rectangle 51" x="1.128906" y="772.421387" width="426.841980" height="0.296007" fill="#FDEEE3" fill-opacity="1.000000"/>
				<rect id="Rectangle 11" x="1.128906" y="378.344116" width="426.841980" height="0.296007" fill="#FDEEE3" fill-opacity="1.000000"/>
				<rect id="Rectangle 31" x="1.128906" y="454.300415" width="426.841980" height="0.296007" fill="#FDEEE3" fill-opacity="1.000000"/>
				<rect id="Rectangle 36" x="1.128906" y="575.822510" width="426.841980" height="0.296007" fill="#FDEEE3" fill-opacity="1.000000"/>
				<rect id="Rectangle 44" x="1.128906" y="696.822510" width="426.841980" height="0.296007" fill="#FDEEE3" fill-opacity="1.000000"/>
				<rect id="Rectangle 52" x="1.128906" y="787.555176" width="426.841980" height="0.296007" fill="#FDEEE3" fill-opacity="1.000000"/>
				<rect id="Rectangle 13" x="1.128906" y="393.477905" width="426.841980" height="0.296007" fill="#FDEEE3" fill-opacity="1.000000"/>
				<rect id="Rectangle 37" x="1.128906" y="515.000000" width="426.841980" height="0.296007" fill="#FDEEE3" fill-opacity="1.000000"/>
				<rect id="Rectangle 45" x="1.128906" y="636.000000" width="426.841980" height="0.296007" fill="#FDEEE3" fill-opacity="1.000000"/>
				<rect id="Rectangle 32" x="1.128906" y="469.434204" width="426.841980" height="0.296007" fill="#FDEEE3" fill-opacity="1.000000"/>
				<rect id="Rectangle 38" x="1.128906" y="590.956299" width="426.841980" height="0.296007" fill="#FDEEE3" fill-opacity="1.000000"/>
				<rect id="Rectangle 46" x="1.128906" y="711.956299" width="426.841980" height="0.296007" fill="#FDEEE3" fill-opacity="1.000000"/>
				<rect id="Rectangle 53" x="1.128906" y="802.688965" width="426.841980" height="0.296007" fill="#FDEEE3" fill-opacity="1.000000"/>
				<rect id="Rectangle 29" x="1.128906" y="408.611572" width="426.841980" height="0.296007" fill="#FDEEE3" fill-opacity="1.000000"/>
				<rect id="Rectangle 39" x="1.128906" y="530.133667" width="426.841980" height="0.296007" fill="#FDEEE3" fill-opacity="1.000000"/>
				<rect id="Rectangle 47" x="1.128906" y="651.133667" width="426.841980" height="0.296007" fill="#FDEEE3" fill-opacity="1.000000"/>
				<rect id="Rectangle 33" x="1.128906" y="484.567993" width="426.841980" height="0.296007" fill="#FDEEE3" fill-opacity="1.000000"/>
				<rect id="Rectangle 40" x="1.128906" y="606.090088" width="426.841980" height="0.296007" fill="#FDEEE3" fill-opacity="1.000000"/>
				<rect id="Rectangle 48" x="1.128906" y="727.090088" width="426.841980" height="0.296007" fill="#FDEEE3" fill-opacity="1.000000"/>
				<rect id="Rectangle 54" x="1.128906" y="817.822754" width="426.841980" height="0.296007" fill="#FDEEE3" fill-opacity="1.000000"/>
				<rect id="Rectangle 15" x="1.128906" y="423.745361" width="426.841980" height="0.296007" fill="#FDEEE3" fill-opacity="1.000000"/>
				<rect id="Rectangle 41" x="1.128906" y="545.267456" width="426.841980" height="0.296007" fill="#FDEEE3" fill-opacity="1.000000"/>
				<rect id="Rectangle 49" x="1.128906" y="666.267456" width="426.841980" height="0.296007" fill="#FDEEE3" fill-opacity="1.000000"/>
				<rect id="Rectangle 55" x="1.128906" y="757.000000" width="426.841980" height="0.296007" fill="#FDEEE3" fill-opacity="1.000000"/>
				<rect id="Rectangle 34" x="1.128906" y="499.701782" width="426.841980" height="0.296007" fill="#FDEEE3" fill-opacity="1.000000"/>
				<rect id="Rectangle 42" x="1.128906" y="621.223877" width="426.841980" height="0.296007" fill="#FDEEE3" fill-opacity="1.000000"/>
				<rect id="Rectangle 50" x="1.128906" y="742.223877" width="426.841980" height="0.296007" fill="#FDEEE3" fill-opacity="1.000000"/>
				<rect id="Rectangle 56" x="1.128906" y="832.956543" width="426.841980" height="0.296007" fill="#FDEEE3" fill-opacity="1.000000"/>
			</g>
		</g>
		<g opacity="0.200000">
			<rect id="Rectangle 1" x="1.000000" width="0.500000" height="840.000000" fill="#FDEEE3" fill-opacity="1.000000"/>
			<rect id="Rectangle 30" x="16.000000" width="0.500000" height="840.000000" fill="#FDEEE3" fill-opacity="1.000000"/>
			<rect id="Rectangle 2" x="31.000000" width="0.500000" height="840.000000" fill="#FDEEE3" fill-opacity="1.000000"/>
			<rect id="Rectangle 3" x="46.250000" width="0.000000" height="487.916656" fill="#FDEEE3" fill-opacity="1.000000"/>
			<rect id="Rectangle 4" x="61.000000" width="0.500000" height="840.000000" fill="#FDEEE3" fill-opacity="1.000000"/>
			<rect id="Rectangle 31" x="47.000000" width="0.500000" height="840.000000" fill="#FDEEE3" fill-opacity="1.000000"/>
			<rect id="Rectangle 5" x="76.000000" width="0.500000" height="840.000000" fill="#FDEEE3" fill-opacity="1.000000"/>
			<rect id="Rectangle 6" x="91.000000" width="0.500000" height="840.000000" fill="#FDEEE3" fill-opacity="1.000000"/>
			<rect id="Rectangle 32" x="106.000000" width="0.500000" height="840.000000" fill="#FDEEE3" fill-opacity="1.000000"/>
			<rect id="Rectangle 33" x="166.666992" width="0.416667" height="487.916656" fill="#FDEEE3" fill-opacity="1.000000"/>
			<rect id="Rectangle 34" x="182.000000" width="0.500000" height="840.000000" fill="#FDEEE3" fill-opacity="1.000000"/>
			<rect id="Rectangle 35" x="242.500000" width="0.416667" height="487.916656" fill="#FDEEE3" fill-opacity="1.000000"/>
			<rect id="Rectangle 36" x="302.916992" width="0.416667" height="487.916656" fill="#FDEEE3" fill-opacity="1.000000"/>
			<rect id="Rectangle 16" x="106.666992" width="0.000000" height="487.916656" fill="#FDEEE3" fill-opacity="1.000000"/>
			<rect id="Rectangle 17" x="122.000000" width="0.500000" height="840.000000" fill="#FDEEE3" fill-opacity="1.000000"/>
			<rect id="Rectangle 18" x="137.000000" width="0.500000" height="840.000000" fill="#FDEEE3" fill-opacity="1.000000"/>
			<rect id="Rectangle 19" x="152.000000" width="0.500000" height="840.000000" fill="#FDEEE3" fill-opacity="1.000000"/>
			<rect id="Rectangle 20" x="167.000000" width="0.500000" height="840.000000" fill="#FDEEE3" fill-opacity="1.000000"/>
			<rect id="Rectangle 21" x="182.083008" width="0.000000" height="487.916656" fill="#FDEEE3" fill-opacity="1.000000"/>
			<rect id="Rectangle 22" x="197.000000" width="0.500000" height="840.000000" fill="#FDEEE3" fill-opacity="1.000000"/>
			<rect id="Rectangle 23" x="212.000000" width="0.500000" height="840.000000" fill="#FDEEE3" fill-opacity="1.000000"/>
			<rect id="Rectangle 24" x="227.000000" width="0.500000" height="840.000000" fill="#FDEEE3" fill-opacity="1.000000"/>
			<rect id="Rectangle 25" x="243.000000" width="0.500000" height="840.000000" fill="#FDEEE3" fill-opacity="1.000000"/>
			<rect id="Rectangle 7" x="258.000000" width="0.500000" height="840.000000" fill="#FDEEE3" fill-opacity="1.000000"/>
			<rect id="Rectangle 8" x="273.000000" width="0.500000" height="840.000000" fill="#FDEEE3" fill-opacity="1.000000"/>
			<rect id="Rectangle 9" x="288.000000" width="0.500000" height="840.000000" fill="#FDEEE3" fill-opacity="1.000000"/>
			<rect id="Rectangle 10" x="303.000000" width="0.500000" height="840.000000" fill="#FDEEE3" fill-opacity="1.000000"/>
			<rect id="Rectangle 12" x="318.000000" width="0.500000" height="840.000000" fill="#FDEEE3" fill-opacity="1.000000"/>
			<rect id="Rectangle 14" x="332.916992" width="0.416667" height="487.916656" fill="#FDEEE3" fill-opacity="1.000000"/>
			<rect id="Rectangle 26" x="347.916992" width="0.416667" height="487.916656" fill="#FDEEE3" fill-opacity="1.000000"/>
			<rect id="Rectangle 27" x="363.333008" width="0.000000" height="487.916656" fill="#FDEEE3" fill-opacity="1.000000"/>
			<rect id="Rectangle 28" x="378.333008" width="0.000000" height="487.916656" fill="#FDEEE3" fill-opacity="1.000000"/>
			<rect id="Rectangle 11" x="393.333008" width="0.416667" height="487.916656" fill="#FDEEE3" fill-opacity="1.000000"/>
			<rect id="Rectangle 13" x="408.333008" width="0.416667" height="487.916656" fill="#FDEEE3" fill-opacity="1.000000"/>
			<rect id="Rectangle 29" x="423.333008" width="0.416667" height="487.916656" fill="#FDEEE3" fill-opacity="1.000000"/>
			<rect id="Rectangle 15" x="438.750000" width="0.000000" height="487.916656" fill="#FDEEE3" fill-opacity="1.000000"/>
		</g>
	</g>
</svg>
