<svg width="1440.000000" height="795.000000" viewBox="0 0 1440 795" fill="none" xmlns="http://www.w3.org/2000/svg" xmlns:xlink="http://www.w3.org/1999/xlink">
	<desc>
			Created with Pixso.
	</desc>
	<defs>
		<clipPath id="clip8_79">
			<rect width="1439.002075" height="795.000000" transform="translate(0.998047 0.000000)" fill="white" fill-opacity="0"/>
		</clipPath>
	</defs>
	<g opacity="0.300000">
		<g clip-path="url(#clip8_79)">
			<rect x="1.000000" width="1442.000000" height="1.000000" fill="#FDEEE3" fill-opacity="1.000000"/>
			<rect x="1.000000" y="51.000000" width="1442.000000" height="1.000000" fill="#FDEEE3" fill-opacity="1.000000"/>
			<rect x="1.000000" y="102.000000" width="1442.000000" height="1.000000" fill="#FDEEE3" fill-opacity="1.000000"/>
			<rect x="1.000000" y="153.000000" width="1442.000000" height="1.000000" fill="#FDEEE3" fill-opacity="1.000000"/>
			<rect x="1.000000" y="204.000000" width="1442.000000" height="1.000000" fill="#FDEEE3" fill-opacity="1.000000"/>
			<rect x="1.000000" y="255.000000" width="1442.000000" height="1.000000" fill="#FDEEE3" fill-opacity="1.000000"/>
			<rect x="1.000000" y="306.000000" width="1442.000000" height="1.000000" fill="#FDEEE3" fill-opacity="1.000000"/>
			<rect x="1.000000" y="357.000000" width="1442.000000" height="1.000000" fill="#FDEEE3" fill-opacity="1.000000"/>
			<rect x="1.000000" y="408.000000" width="1442.000000" height="1.000000" fill="#FDEEE3" fill-opacity="1.000000"/>
			<rect x="1.000000" y="459.000000" width="1442.000000" height="1.000000" fill="#FDEEE3" fill-opacity="1.000000"/>
			<rect x="1.000000" y="510.000000" width="1442.000000" height="1.000000" fill="#FDEEE3" fill-opacity="1.000000"/>
			<rect x="1.000000" y="561.000000" width="1442.000000" height="1.000000" fill="#FDEEE3" fill-opacity="1.000000"/>
			<rect x="1.000000" y="612.000000" width="1442.000000" height="1.000000" fill="#FDEEE3" fill-opacity="1.000000"/>
			<rect x="1.000000" y="663.000000" width="1442.000000" height="1.000000" fill="#FDEEE3" fill-opacity="1.000000"/>
			<rect x="1.000000" y="714.000000" width="1442.000000" height="1.000000" fill="#FDEEE3" fill-opacity="1.000000"/>
			<rect x="1.000000" y="765.000000" width="1442.000000" height="1.000000" fill="#FDEEE3" fill-opacity="1.000000"/>
			<rect x="1.000000" y="816.000000" width="1442.000000" height="1.000000" fill="#FDEEE3" fill-opacity="1.000000"/>
			<rect x="1.000000" y="867.000000" width="1442.000000" height="1.000000" fill="#FDEEE3" fill-opacity="1.000000"/>
			<rect x="1.000000" y="918.000000" width="1442.000000" height="1.000000" fill="#FDEEE3" fill-opacity="1.000000"/>
			<rect x="1.000000" y="969.000000" width="1442.000000" height="1.000000" fill="#FDEEE3" fill-opacity="1.000000"/>
			<rect x="1.000000" y="1020.000000" width="1442.000000" height="1.000000" fill="#FDEEE3" fill-opacity="1.000000"/>
			<rect x="1.000000" y="1071.000000" width="1442.000000" height="1.000000" fill="#FDEEE3" fill-opacity="1.000000"/>
			<rect x="1.000000" y="1122.000000" width="1442.000000" height="1.000000" fill="#FDEEE3" fill-opacity="1.000000"/>
			<rect x="1.000000" y="1173.000000" width="1442.000000" height="1.000000" fill="#FDEEE3" fill-opacity="1.000000"/>
			<rect x="1.000000" y="1224.000000" width="1442.000000" height="1.000000" fill="#FDEEE3" fill-opacity="1.000000"/>
			<rect x="1.000000" y="1275.000000" width="1442.000000" height="1.000000" fill="#FDEEE3" fill-opacity="1.000000"/>
			<rect x="1.000000" y="1326.000000" width="1442.000000" height="1.000000" fill="#FDEEE3" fill-opacity="1.000000"/>
			<rect x="1.000000" y="1377.000000" width="1442.000000" height="1.000000" fill="#FDEEE3" fill-opacity="1.000000"/>
			<rect x="1.000000" y="1428.000000" width="1442.000000" height="1.000000" fill="#FDEEE3" fill-opacity="1.000000"/>
		</g>
	</g>
	<g opacity="0.200000">
		<rect width="1.379310" height="795.000000" fill="#FDEEE3" fill-opacity="1.000000"/>
		<rect x="51.379395" width="1.379310" height="795.000000" fill="#FDEEE3" fill-opacity="1.000000"/>
		<rect x="102.758789" width="1.379310" height="795.000000" fill="#FDEEE3" fill-opacity="1.000000"/>
		<rect x="154.137695" width="1.379310" height="795.000000" fill="#FDEEE3" fill-opacity="1.000000"/>
		<rect x="205.517090" width="1.379310" height="795.000000" fill="#FDEEE3" fill-opacity="1.000000"/>
		<rect x="256.896484" width="1.379310" height="795.000000" fill="#FDEEE3" fill-opacity="1.000000"/>
		<rect x="308.275879" width="1.379310" height="795.000000" fill="#FDEEE3" fill-opacity="1.000000"/>
		<rect x="359.655273" width="1.379310" height="795.000000" fill="#FDEEE3" fill-opacity="1.000000"/>
		<rect x="411.034668" width="1.379310" height="795.000000" fill="#FDEEE3" fill-opacity="1.000000"/>
		<rect x="462.413574" width="1.379310" height="795.000000" fill="#FDEEE3" fill-opacity="1.000000"/>
		<rect x="513.792969" width="1.379310" height="795.000000" fill="#FDEEE3" fill-opacity="1.000000"/>
		<rect x="565.172363" width="1.379310" height="795.000000" fill="#FDEEE3" fill-opacity="1.000000"/>
		<rect x="616.551758" width="1.379310" height="795.000000" fill="#FDEEE3" fill-opacity="1.000000"/>
		<rect x="667.931152" width="1.379310" height="795.000000" fill="#FDEEE3" fill-opacity="1.000000"/>
		<rect x="719.310547" width="1.379310" height="795.000000" fill="#FDEEE3" fill-opacity="1.000000"/>
		<rect x="770.689941" width="1.379310" height="795.000000" fill="#FDEEE3" fill-opacity="1.000000"/>
		<rect x="822.069336" width="1.379310" height="795.000000" fill="#FDEEE3" fill-opacity="1.000000"/>
		<rect x="873.448242" width="1.379310" height="795.000000" fill="#FDEEE3" fill-opacity="1.000000"/>
		<rect x="924.827637" width="1.379310" height="795.000000" fill="#FDEEE3" fill-opacity="1.000000"/>
		<rect x="976.207031" width="1.379310" height="795.000000" fill="#FDEEE3" fill-opacity="1.000000"/>
		<rect x="1027.586426" width="1.379310" height="795.000000" fill="#FDEEE3" fill-opacity="1.000000"/>
		<rect x="1078.965820" width="1.379310" height="795.000000" fill="#FDEEE3" fill-opacity="1.000000"/>
		<rect x="1130.344727" width="1.379310" height="795.000000" fill="#FDEEE3" fill-opacity="1.000000"/>
		<rect x="1181.724121" width="1.379310" height="795.000000" fill="#FDEEE3" fill-opacity="1.000000"/>
		<rect x="1233.103516" width="1.379310" height="795.000000" fill="#FDEEE3" fill-opacity="1.000000"/>
		<rect x="1284.482910" width="1.379310" height="795.000000" fill="#FDEEE3" fill-opacity="1.000000"/>
		<rect x="1335.862305" width="1.379310" height="795.000000" fill="#FDEEE3" fill-opacity="1.000000"/>
		<rect x="1387.241211" width="1.379310" height="795.000000" fill="#FDEEE3" fill-opacity="1.000000"/>
		<rect x="1438.621094" width="1.379310" height="795.000000" fill="#FDEEE3" fill-opacity="1.000000"/>
	</g>
</svg>
