<svg
  width="375"
  height="357"
  viewBox="0 0 375 357"
  fill="none"
  xmlns="http://www.w3.org/2000/svg"
  xmlns:xlink="http://www.w3.org/1999/xlink"
>
  <path
    id="Vector"
    d="M247.13 163.88C222.46 147.18 191.38 144.22 163.99 155.96C136.6 167.71 117.33 192.27 112.43 221.65L100.62 292.45C98.66 304.2 100.5 316.01 105.93 326.61C111.36 337.2 119.88 345.59 130.57 350.86C141.25 356.13 153.1 357.77 164.83 355.63C176.55 353.49 187.06 347.75 195.2 339.05L195.74 338.46C216.32 316.77 245.21 304.5 275.13 304.76C282.85 304.83 290.34 303.32 297.29 300.35C301.06 298.73 304.68 296.67 308.07 294.2C317.71 287.18 324.68 277.46 328.23 266.09C331.78 254.72 331.58 242.76 327.65 231.52C323.72 220.28 316.43 210.8 306.56 204.12L247.13 163.88ZM86.37 232.74C95.22 224.13 99.61 212.14 98.73 198.99C97.9 186.48 92.32 174.33 83.02 164.8C73.73 155.28 61.72 149.39 49.23 148.23C36.1 147.02 24 151.09 15.16 159.71C-2.61 177.01 -1.11 207.48 18.52 227.64C34.18 243.67 56.67 248.39 74.16 240.89C78.69 238.95 82.84 236.19 86.37 232.74ZM136.83 159.6C163.44 148.18 174.52 114.26 161.53 83.97C148.53 53.67 116.31 38.3 89.71 49.72C63.1 61.13 52.02 95.06 65.02 125.36C78.01 155.65 110.22 171.01 136.83 159.6ZM225.96 137.35L225.96 137.35C230.54 136.96 235.03 135.84 239.25 134.02C258.66 125.7 271.51 103.48 269.43 78.69C268.23 64.43 262.29 51.35 252.72 41.86C242.7 31.92 229.93 27.07 216.78 28.18C203.62 29.3 191.85 36.24 183.63 47.71C175.78 58.68 172.12 72.57 173.32 86.84C175.85 116.93 199.47 139.59 225.96 137.35ZM324.84 87.35L324.82 87.35C300.67 81.67 275.74 99.31 269.26 126.68C262.8 154.05 277.18 180.95 301.32 186.64C310.12 188.72 319.03 187.7 327.11 184.24C341.2 178.2 352.77 164.73 356.9 147.32C363.36 119.95 348.98 93.05 324.84 87.35L324.84 87.35Z"
    fill="#E47537"
    fill-opacity="1"
    fill-rule="nonzero"
  />
</svg>
