<svg width="810.000000" height="215.000000" viewBox="0 0 810 215" fill="none" xmlns="http://www.w3.org/2000/svg" xmlns:xlink="http://www.w3.org/1999/xlink">
	<desc>
			Created with Pixso.
	</desc>
	<defs/>
	<path d="M742 191.24L742 196.6L785.79 196.6C787.66 196.6 788.74 195.6 788.74 193.92C788.74 192.25 787.66 191.24 785.79 191.24L742 191.24ZM785.79 173.84L742 173.84L742 179.19L785.79 179.19C787.66 179.19 788.74 178.19 788.74 176.51C788.74 174.84 787.66 173.84 785.79 173.84ZM793.15 208.65L720.84 208.65L720.84 161.78L793.15 161.78C803 161.78 809.89 166.47 809.89 175.17C809.89 179.73 807.75 183.14 804.07 185.22C807.75 187.29 809.89 190.71 809.89 195.26C809.89 203.97 803 208.65 793.15 208.65Z" fill="#FDEEE3" fill-opacity="1.000000" fill-rule="nonzero"/>
	<path d="M628.45 208.65L628.45 161.78L715.49 161.78L715.49 173.84L649.6 173.84L649.6 179.19L715.49 179.19L715.49 191.24L649.6 191.24L649.6 196.6L715.49 196.6L715.49 208.65L628.45 208.65Z" fill="#FDEEE3" fill-opacity="1.000000" fill-rule="nonzero"/>
	<path d="M529.32 208.65L529.32 161.78L550.48 161.78L550.48 192.58L597.21 192.58L597.21 161.78L618.37 161.78L618.37 192.58L623.73 192.58L623.73 214.01L602.57 214.01L602.57 208.65L529.32 208.65Z" fill="#FDEEE3" fill-opacity="1.000000" fill-rule="nonzero"/>
	<path d="M414.3 208.65L414.3 161.78L442.55 161.78L468.6 193.92L494.65 161.78L523.98 161.78L523.98 208.65L502.82 208.65L502.82 181.13L480.52 208.65L456.68 208.65L435.46 182.47L435.46 208.65L414.3 208.65Z" fill="#FDEEE3" fill-opacity="1.000000" fill-rule="nonzero"/>
	<path d="M408.93 161.78L408.93 208.65L387.77 208.65L387.77 181.87L341.04 208.65L319.88 208.65L319.88 161.78L341.04 161.78L341.04 188.57L387.77 161.78L408.93 161.78Z" fill="#FDEEE3" fill-opacity="1.000000" fill-rule="nonzero"/>
	<path d="M247.27 196.6L291.06 196.6C292.93 196.6 294.01 195.6 294.01 193.92C294.01 192.25 292.93 191.24 291.06 191.24L247.27 191.24L247.27 196.6ZM298.42 208.65L226.11 208.65L226.11 161.78L313.16 161.78L313.16 173.84L247.27 173.84L247.27 179.19L298.42 179.19C308.27 179.19 315.16 185.22 315.16 193.92C315.16 202.63 308.27 208.65 298.42 208.65Z" fill="#FDEEE3" fill-opacity="1.000000" fill-rule="nonzero"/>
	<path d="M194.26 178.52L154.08 178.52C150.4 178.52 147.39 181.54 147.39 185.22C147.39 188.9 150.4 191.91 154.08 191.91L194.26 191.91C197.94 191.91 200.95 188.9 200.95 185.22C200.95 181.54 197.94 178.52 194.26 178.52ZM149.73 161.11L198.61 161.11C211.53 161.11 222.05 172.3 222.05 185.22C222.05 198.14 211.53 209.32 198.61 209.32L149.73 209.32C138.88 209.32 129.71 201.42 127.1 191.24L123.62 191.24L123.62 208.65L102.46 208.65L102.46 161.78L123.62 161.78L123.62 179.19L127.1 179.19C129.71 169.01 138.88 161.11 149.73 161.11Z" fill="#FDEEE3" fill-opacity="1.000000" fill-rule="nonzero"/>
	<path d="M49.88 176.51L23.83 208.65L0 208.65L37.96 161.78L61.8 161.78L99.76 208.65L75.93 208.65L49.88 176.51Z" fill="#FDEEE3" fill-opacity="1.000000" fill-rule="nonzero"/>
	<path d="M714.78 81.22L744.64 81.22L761.92 93.61L779.19 81.22L809.06 81.22L776.85 104.32L810 128.09L780.13 128.09L761.92 115.04L743.71 128.09L713.84 128.09L746.99 104.32L714.78 81.22Z" fill="#FDEEE3" fill-opacity="1.000000" fill-rule="nonzero"/>
	<path d="M710.5 81.22L710.5 128.09L689.35 128.09L689.35 101.31L642.61 128.09L621.45 128.09L621.45 81.22L642.61 81.22L642.61 108.01L689.35 81.22L710.5 81.22Z" fill="#FDEEE3" fill-opacity="1.000000" fill-rule="nonzero"/>
	<path d="M545.1 80.55L593.98 80.55C606.9 80.55 617.42 91.74 617.42 104.66C617.42 117.58 606.9 128.76 593.98 128.76L545.1 128.76C532.18 128.76 521.67 117.58 521.67 104.66C521.67 91.74 532.18 80.55 545.1 80.55ZM589.63 97.96L549.45 97.96C545.77 97.96 542.76 100.98 542.76 104.66C542.76 108.34 545.77 111.36 549.45 111.36L589.63 111.36C593.31 111.36 596.32 108.34 596.32 104.66C596.32 100.98 593.31 97.96 589.63 97.96Z" fill="#FDEEE3" fill-opacity="1.000000" fill-rule="nonzero"/>
	<path d="M451.08 110.69L451.08 116.04L494.88 116.04C496.75 116.04 497.82 115.04 497.82 113.36C497.82 111.69 496.75 110.69 494.88 110.69L451.08 110.69ZM494.88 93.28L451.08 93.28L451.08 98.63L494.88 98.63C496.75 98.63 497.82 97.63 497.82 95.95C497.82 94.28 496.75 93.28 494.88 93.28ZM502.24 128.09L429.93 128.09L429.93 81.22L502.24 81.22C512.08 81.22 518.98 85.91 518.98 94.62C518.98 99.17 516.84 102.58 513.15 104.66C516.84 106.73 518.98 110.15 518.98 114.7C518.98 123.41 512.08 128.09 502.24 128.09Z" fill="#FDEEE3" fill-opacity="1.000000" fill-rule="nonzero"/>
	<path d="M369.39 128.09L369.39 97.29L335.5 97.29L335.5 81.22L424.56 81.22L424.56 97.29L390.54 97.29L390.54 128.09L369.39 128.09Z" fill="#FDEEE3" fill-opacity="1.000000" fill-rule="nonzero"/>
	<path d="M231.71 102.65L275.5 102.65L275.5 97.29L231.71 97.29C229.83 97.29 228.76 98.3 228.76 99.97C228.76 101.65 229.83 102.65 231.71 102.65ZM226.35 81.22L296.66 81.22L296.66 128.09L275.5 128.09L275.5 118.72L248.05 118.72L234.45 128.09L207.6 128.09L221.87 118.25C212.89 116.18 207.6 108.07 207.6 99.97C207.6 90.6 214.64 81.22 226.35 81.22Z" fill="#FDEEE3" fill-opacity="1.000000" fill-rule="nonzero"/>
	<path d="M155.68 95.95L129.63 128.09L105.79 128.09L143.76 81.22L167.6 81.22L205.56 128.09L181.72 128.09L155.68 95.95Z" fill="#FDEEE3" fill-opacity="1.000000" fill-rule="nonzero"/>
	<path d="M34.61 103.39L30.59 112.02L76.6 112.02L76.6 97.29L44.12 97.29C39.63 97.29 36.49 99.3 34.61 103.39ZM103.11 133.45L81.95 133.45L81.95 128.09L21.15 128.09L21.15 133.45L0 133.45L0 112.02L7.49 112.02L14.26 97.09C19.14 86.45 27.25 81.22 38.9 81.22L97.75 81.22L97.75 112.02L103.11 112.02L103.11 133.45Z" fill="#FDEEE3" fill-opacity="1.000000" fill-rule="nonzero"/>
	<path d="M539.73 26.11L495.94 26.11L495.94 31.47L539.73 31.47C541.61 31.47 542.68 30.46 542.68 28.79C542.68 27.11 541.61 26.11 539.73 26.11ZM545.09 47.54L474.78 47.54L474.78 0.66L495.94 0.66L495.94 10.04L545.09 10.04C556.81 10.04 563.84 19.41 563.84 28.79C563.84 38.16 556.81 47.54 545.09 47.54ZM587.67 47.54L566.52 47.54L566.52 0.66L587.67 0.66L587.67 47.54Z" fill="#FDEEE3" fill-opacity="1.000000" fill-rule="nonzero"/>
	<path d="M447.34 16.73L403.55 16.73L403.55 22.09L447.34 22.09C449.21 22.09 450.28 21.09 450.28 19.41C450.28 17.74 449.21 16.73 447.34 16.73ZM403.55 47.54L382.39 47.54L382.39 0.66L452.69 0.66C464.41 0.66 471.44 10.04 471.44 19.41C471.44 28.79 464.41 38.16 452.69 38.16L403.55 38.16L403.55 47.54Z" fill="#FDEEE3" fill-opacity="1.000000" fill-rule="nonzero"/>
	<path d="M329.81 15.4L320.03 27.45L339.58 27.45L329.81 15.4ZM317.89 0.66L341.73 0.66L379.69 47.54L355.85 47.54L350.43 40.84L309.18 40.84L303.76 47.54L279.92 47.54L317.89 0.66Z" fill="#FDEEE3" fill-opacity="1.000000" fill-rule="nonzero"/>
	<path d="M212.68 30.13L212.68 35.48L256.47 35.48C258.34 35.48 259.41 34.48 259.41 32.8C259.41 31.13 258.34 30.13 256.47 30.13L212.68 30.13ZM256.47 12.72L212.68 12.72L212.68 18.07L256.47 18.07C258.34 18.07 259.41 17.07 259.41 15.4C259.41 13.72 258.34 12.72 256.47 12.72ZM263.83 47.54L191.52 47.54L191.52 0.66L263.83 0.66C273.68 0.66 280.57 5.35 280.57 14.06C280.57 18.61 278.43 22.02 274.75 24.1C278.43 26.18 280.57 29.59 280.57 34.14C280.57 42.85 273.68 47.54 263.83 47.54Z" fill="#FDEEE3" fill-opacity="1.000000" fill-rule="nonzero"/>
	<path d="M115.17 0L164.05 0C176.97 0 187.49 11.18 187.49 24.1C187.49 37.02 176.97 48.2 164.05 48.2L115.17 48.2C102.25 48.2 91.74 37.02 91.74 24.1C91.74 11.18 102.25 0 115.17 0ZM159.7 17.4L119.52 17.4C115.84 17.4 112.83 20.42 112.83 24.1C112.83 27.78 115.84 30.8 119.52 30.8L159.7 30.8C163.38 30.8 166.39 27.78 166.39 24.1C166.39 20.42 163.38 17.4 159.7 17.4Z" fill="#FDEEE3" fill-opacity="1.000000" fill-rule="nonzero"/>
	<path d="M33.88 47.54L33.88 16.73L0 16.73L0 0.66L89.05 0.66L89.05 16.73L55.03 16.73L55.03 47.54L33.88 47.54Z" fill="#FDEEE3" fill-opacity="1.000000" fill-rule="nonzero"/>
</svg>
